<svg xmlns="http://www.w3.org/2000/svg" width="14.338" height="16.635" viewBox="0 0 14.338 16.635">
  <g id="_5386919_file_format_log_type_icon" data-name="5386919_file_format_log_type_icon" transform="translate(-40 -8)">
    <path id="Path_4326" data-name="Path 4326" d="M51.731,108.436a.61.61,0,0,0,.652-.554v-3.327a.61.61,0,0,0-.652-.554H40.652a.61.61,0,0,0-.652.554v3.327a.61.61,0,0,0,.652.554Zm-4.1-2.845a1.07,1.07,0,0,1,.492-.407,1.527,1.527,0,0,1,.614-.109,1.389,1.389,0,0,1,.746.171.766.766,0,0,1,.346.471l-.515.082a.468.468,0,0,0-.2-.254.7.7,0,0,0-.374-.093.771.771,0,0,0-.54.183.7.7,0,0,0-.2.544.771.771,0,0,0,.2.583.738.738,0,0,0,.532.194,1.03,1.03,0,0,0,.326-.054,1.188,1.188,0,0,0,.281-.132v-.277h-.594v-.368h1.117v.87a1.477,1.477,0,0,1-.472.236,1.984,1.984,0,0,1-.626.1,1.606,1.606,0,0,1-.7-.144.992.992,0,0,1-.45-.411,1.165,1.165,0,0,1-.151-.582A1.107,1.107,0,0,1,47.635,105.591Zm-2.873.067a1.037,1.037,0,0,1,.239-.3,1.018,1.018,0,0,1,.332-.2,1.629,1.629,0,0,1,.553-.086,1.325,1.325,0,0,1,.908.3,1.185,1.185,0,0,1,0,1.66,1.314,1.314,0,0,1-.9.3,1.329,1.329,0,0,1-.91-.3,1.033,1.033,0,0,1-.338-.818,1.206,1.206,0,0,1,.117-.56Zm-2.206-.527h.518v1.8h1.288v.368H42.556Z" transform="translate(0 -89.346)" fill="#1189e1"/>
    <path id="Path_4327" data-name="Path 4327" d="M104.28,126.462a.706.706,0,0,0,.508-.19.753.753,0,0,0,.2-.57.74.74,0,0,0-.193-.56.807.807,0,0,0-1.03,0,.9.9,0,0,0,.005,1.126A.712.712,0,0,0,104.28,126.462Z" transform="translate(-58.389 -108.852)" fill="#1189e1"/>
    <path id="Path_4328" data-name="Path 4328" d="M60.383,8H49.3A1.219,1.219,0,0,0,48,9.109V14.1h1.091V9.493a.61.61,0,0,1,.652-.554l10.346.167a.61.61,0,0,1,.652.554V20.854a.481.481,0,0,1-.005.067L58.1,20.753a.915.915,0,0,0-.978.832l-.007,2.152a.775.775,0,0,1-.079,0H49.521a.61.61,0,0,1-.652-.554l.007-3.542H48v3.881a1.219,1.219,0,0,0,1.3,1.109h7.742a1.419,1.419,0,0,0,.922-.325L61.3,21.47a1.026,1.026,0,0,0,.382-.784V9.109A1.219,1.219,0,0,0,60.383,8Z" transform="translate(-7.348 0)" fill="#1189e1"/>
  </g>
</svg>
