<svg xmlns="http://www.w3.org/2000/svg" width="13.377" height="15.4" viewBox="0 0 13.377 15.4">
  <g id="_6714575_certificate_deed_home_house_investment_icon" data-name="6714575_certificate_deed_home_house_investment_icon" transform="translate(-51.062 -19.16)">
    <g id="Path_17" data-name="Path 17" transform="translate(0 0)">
      <path d="M 63.30958557128906 34.45985412597656 L 63.30948638916016 34.45985412597656 L 63.30902481079102 34.45985412597656 C 63.24484634399414 34.45985412597656 63.18315505981445 34.43629455566406 63.13531494140625 34.39352416992188 L 62.61852264404297 33.93399429321289 L 62.10182571411133 34.39368438720703 C 62.05388641357422 34.43634414672852 61.99211502075195 34.45985412597656 61.92790603637695 34.45985412597656 C 61.89075469970703 34.45985412597656 61.85471343994141 34.45213317871094 61.82079315185547 34.43690490722656 C 61.72694396972656 34.39479446411133 61.66629409790039 34.30110168457031 61.66629409790039 34.19822311401367 L 61.66629409790039 32.74331665039062 C 61.51979064941406 32.64580535888672 61.39006042480469 32.52739715576172 61.27959442138672 32.39034271240234 L 53.03187561035156 32.39034271240234 C 52.88761520385742 32.39034271240234 52.77024459838867 32.27297210693359 52.77024459838867 32.12871170043945 L 52.77024459838867 21.79971313476562 L 51.42380523681641 21.79971313476562 C 51.33940505981445 21.79966354370117 51.25982666015625 21.75864219665527 51.21085357666016 21.68997383117676 C 51.16188430786133 21.62130355834961 51.14904403686523 21.53269386291504 51.17648315429688 21.45293235778809 L 51.52065658569336 20.45686340332031 C 51.76659393310547 19.74283218383789 52.43938446044922 19.26303291320801 53.19477462768555 19.26303291320801 L 53.20016479492188 19.26303291320801 L 62.25990295410156 19.2915210723877 C 62.36443328857422 19.27050590515137 62.47137451171875 19.25986289978027 62.57797622680664 19.25986289978027 C 63.45714569091797 19.26098251342773 64.17015838623047 19.9739933013916 64.17127227783203 20.84927368164062 L 64.17127227783203 30.56979942321777 C 64.2816162109375 30.79992866516113 64.33973693847656 31.05558776855469 64.33956146240234 31.3108024597168 C 64.33914184570312 31.89224052429199 64.05290222167969 32.42363357543945 63.57102584838867 32.74339294433594 L 63.57102584838867 34.19822311401367 C 63.57075500488281 34.34229278564453 63.45346450805664 34.4595832824707 63.30958557128906 34.45985412597656 Z M 62.18955612182617 32.97708511352539 L 62.18955612182617 33.61618804931641 L 62.44566345214844 33.38909149169922 C 62.49369430541992 33.34662246704102 62.55532455444336 33.32328414916992 62.61929321289062 33.32328414916992 C 62.68326568603516 33.32328414916992 62.74489593505859 33.34662246704102 62.79281616210938 33.38900375366211 L 63.04621887207031 33.61444091796875 L 63.0472297668457 32.97714233398438 C 62.90738296508789 33.01334762573242 62.76371383666992 33.03164291381836 62.61850357055664 33.03164291381836 C 62.47322463989258 33.03164291381836 62.32947158813477 33.01332473754883 62.18955612182617 32.97708511352539 Z M 62.61856460571289 30.01166343688965 L 62.61849594116211 30.11166381835938 C 61.95856475830078 30.11166381835938 61.42123413085938 30.64856338500977 61.42070388793945 31.30849266052246 C 61.420166015625 31.96869277954102 61.95683670043945 32.50646209716797 62.61703491210938 32.50727462768555 L 62.64711380004883 32.5073127746582 L 62.64834213256836 32.50812530517578 C 63.29507446289062 32.49138259887695 63.81630325317383 31.95975112915039 63.81630325317383 31.30946350097656 C 63.81630325317383 30.64927291870117 63.27919387817383 30.11194229125977 62.61899566650391 30.11166381835938 L 62.61856460571289 30.01166343688965 Z M 53.29445648193359 31.8670825958252 L 60.99123764038086 31.8670825958252 C 60.74452590942383 31.14757537841797 61.00187301635742 30.33922958374023 61.63580322265625 29.89805221557617 C 61.92554473876953 29.69640350341797 62.26509475708008 29.58982276916504 62.61774444580078 29.58982276916504 C 62.99394226074219 29.58982276916504 63.35283660888672 29.71026992797852 63.64896392822266 29.93268203735352 L 63.64896392822266 20.84940338134766 C 63.64832305908203 20.26195335388184 63.16979598999023 19.78328323364258 62.58223342895508 19.78249359130859 C 62.06986618041992 19.78249359130859 61.63235473632812 20.12875366210938 61.51532363891602 20.62453269958496 L 61.28360366821289 21.59768295288086 C 61.25544357299805 21.71606254577637 61.15078353881836 21.79875373840332 61.02910614013672 21.79875373840332 L 53.29445648193359 21.79875373840332 L 53.29445648193359 31.8670825958252 Z M 51.79103851318359 21.27676391601562 L 60.82147216796875 21.27676391601562 L 61.00537490844727 20.50455284118652 C 61.06558609008789 20.24870300292969 61.18951797485352 20.00938606262207 61.36185836791992 19.81152153015137 L 53.19858551025391 19.78597259521484 L 53.19412612915039 19.68597221374512 L 53.19412612915039 19.78597259521484 C 52.66250610351562 19.78597259521484 52.18888473510742 20.12365341186523 52.01559448242188 20.62624359130859 L 51.79103851318359 21.27676391601562 Z" stroke="none"/>
      <path d="M 63.30902862548828 34.3598518371582 C 63.39857482910156 34.35799026489258 63.47085189819336 34.28754425048828 63.47102355957031 34.19822311401367 L 63.47102355957031 32.68872451782227 C 63.94845581054688 32.39337158203125 64.23915863037109 31.87212371826172 64.23956298828125 31.31073379516602 C 64.23973846435547 31.0616626739502 64.18213653564453 30.81594276428223 64.07127380371094 30.59290313720703 L 64.07127380371094 20.84940338134766 C 64.07022857666016 20.02718353271484 63.40395355224609 19.36091232299805 62.58173370361328 19.35986328125 C 62.47714614868164 19.35956764221191 62.37245941162109 19.37022399902344 62.2698860168457 19.39155387878418 L 53.19477462768555 19.36303329467773 C 52.48169326782227 19.36303329467773 51.84734344482422 19.81547355651855 51.61517333984375 20.48952293395996 L 51.27104568481445 21.4854736328125 C 51.25405502319336 21.53484344482422 51.26195526123047 21.58939361572266 51.29227447509766 21.63191223144531 C 51.32259368896484 21.6744327545166 51.37158584594727 21.69968223571777 51.42380523681641 21.6997127532959 L 52.87024307250977 21.6997127532959 L 52.87024307250977 32.12871170043945 C 52.87024307250977 32.21798324584961 52.9426155090332 32.29034423828125 53.03187561035156 32.29034423828125 L 61.32830429077148 32.29034423828125 C 61.44869613647461 32.44881439208984 61.5971565246582 32.58384323120117 61.76629638671875 32.68872451782227 L 61.76629638671875 34.19822311401367 C 61.76629638671875 34.26188278198242 61.80366516113281 34.31961441040039 61.86174392700195 34.34567260742188 C 61.91982650756836 34.37173843383789 61.98780822753906 34.36128997802734 62.03535461425781 34.31897354125977 L 62.61850357055664 33.80016326904297 L 63.20196533203125 34.31897354125977 C 63.23141098022461 34.34530258178711 63.2695426940918 34.3598518371582 63.30902862548828 34.3598518371582 M 62.08955383300781 32.84242248535156 C 62.43215942382812 32.96138000488281 62.80485534667969 32.96138000488281 63.14744567871094 32.84242248535156 L 63.14586639404297 33.83693313598633 L 62.7265739440918 33.46391296386719 C 62.66532135009766 33.40975189208984 62.57327651977539 33.40974426269531 62.51201629638672 33.46391296386719 L 62.08955383300781 33.8385124206543 L 62.08955383300781 32.84242248535156 M 62.61849975585938 30.01166343688965 C 62.61871719360352 30.01166343688965 62.61881637573242 30.01166343688965 62.61903381347656 30.01166343688965 C 63.33557510375977 30.011962890625 63.91630554199219 30.5929126739502 63.91630554199219 31.30946350097656 C 63.91630554199219 32.02603149414062 63.3357048034668 32.60748291015625 62.61881637573242 32.6085319519043 L 62.61691665649414 32.60727310180664 C 61.90036392211914 32.60639190673828 61.32011413574219 32.02496337890625 61.32070541381836 31.30841255187988 C 61.32128524780273 30.59208106994629 61.90224075317383 30.01166343688965 62.61849975585938 30.01166343688965 M 61.13783645629883 31.96708297729492 L 53.19445419311523 31.96708297729492 L 53.19445419311523 21.69875335693359 L 61.02786636352539 21.69875335693359 C 61.10274124145508 21.69921112060547 61.16889572143555 21.64779090881348 61.18632507324219 21.57452392578125 L 61.41799545288086 20.6015625 C 61.54539489746094 20.06186103820801 62.02869033813477 19.6818904876709 62.58237457275391 19.68249320983887 C 63.22642517089844 19.68336296081543 63.74826431274414 20.20535278320312 63.74896621704102 20.84940338134766 L 63.74896621704102 30.14984321594238 C 63.19293212890625 29.60771369934082 62.33035659790039 29.53650665283203 61.69292449951172 29.98013305664062 C 61.05550384521484 30.42374229431152 60.82262420654297 31.25733375549316 61.13783645629883 31.96708297729492 M 53.19412231445312 19.68597221374512 C 53.19426345825195 19.68597221374512 53.19431304931641 19.68597221374512 53.19445419311523 19.68597221374512 L 53.19889450073242 19.68597221374512 L 61.60529327392578 19.71228218078613 C 61.35406494140625 19.92266273498535 61.17771530151367 20.20875358581543 61.10265350341797 20.52772331237793 L 60.90045547485352 21.37676239013672 L 51.65072631835938 21.37676239013672 L 51.92105484008789 20.59364318847656 C 52.10832977294922 20.05050659179688 52.61964416503906 19.68597221374512 53.19412231445312 19.68597221374512 M 63.30977630615234 34.55985260009766 L 63.30902481079102 34.55985260009766 C 63.2202262878418 34.55985260009766 63.13486480712891 34.52725219726562 63.06866455078125 34.46807479858398 L 62.61853790283203 34.06782531738281 L 62.16829299926758 34.46839141845703 C 62.0637321472168 34.56147766113281 61.90769958496094 34.58553314208984 61.77980422973633 34.52812194824219 C 61.65012359619141 34.46993255615234 61.5662956237793 34.34043121337891 61.5662956237793 34.19822311401367 L 61.5662956237793 32.79592514038086 C 61.44257354736328 32.70821762084961 61.33086013793945 32.60592269897461 61.23257064819336 32.49034118652344 L 53.03187561035156 32.49034118652344 C 52.83247375488281 32.49034118652344 52.67024612426758 32.3281135559082 52.67024612426758 32.12871170043945 L 52.67024612426758 21.89971351623535 L 51.42380523681641 21.89971351623535 C 51.30711364746094 21.89964294433594 51.19711303710938 21.84294319152832 51.12943649291992 21.74803352355957 C 51.0617561340332 21.65311241149902 51.04399490356445 21.5306339263916 51.08193588256836 21.4203929901123 L 51.42614364624023 20.42420387268066 C 51.68594360351562 19.6699333190918 52.39672470092773 19.16303253173828 53.19477462768555 19.16303253173828 L 53.20016479492188 19.16303253173828 L 62.25027847290039 19.19149017333984 C 62.35803985595703 19.17049598693848 62.46816635131836 19.15986251831055 62.57797622680664 19.15986251831055 C 63.51227569580078 19.16105270385742 64.27008819580078 19.91886329650879 64.27127838134766 20.84914398193359 L 64.27127838134766 30.54740715026855 C 64.38166809082031 30.78552627563477 64.43974304199219 31.04843330383301 64.43956756591797 31.31087303161621 C 64.43913269042969 31.90794563293457 64.15392303466797 32.45508575439453 63.67102432250977 32.79611587524414 L 63.67102432250977 34.19822311401367 C 63.67064666748047 34.39742279052734 63.50859451293945 34.55947494506836 63.30977630615234 34.55985260009766 Z M 62.28955459594727 33.10160446166992 L 62.28955459594727 33.39387130737305 L 62.37932586669922 33.31427383422852 C 62.44576644897461 33.25552368164062 62.53091430664062 33.22328186035156 62.61929321289062 33.22328186035156 C 62.70767593383789 33.22328186035156 62.79282379150391 33.25552368164062 62.85904312133789 33.31407165527344 L 62.94657135009766 33.39193725585938 L 62.9470329284668 33.10168075561523 C 62.73077392578125 33.14155197143555 62.50581359863281 33.14152526855469 62.28955459594727 33.10160446166992 Z M 62.61849594116211 30.01166343688965 L 62.61849594116211 30.21166229248047 C 62.01366424560547 30.21166229248047 61.52119445800781 30.70373344421387 61.52070617675781 31.30857276916504 C 61.52020645141602 31.91365242004395 62.0120735168457 32.40653228759766 62.61716461181641 32.40727233886719 L 62.6685791015625 32.40733337402344 C 63.25076293945312 32.38023376464844 63.71630477905273 31.89783477783203 63.71630477905273 31.30946350097656 C 63.71630477905273 30.70438385009766 63.22403335571289 30.21191215515137 62.61895370483398 30.21166229248047 L 62.61849594116211 30.01166343688965 Z M 53.39445495605469 31.76708221435547 L 60.8568115234375 31.76708221435547 C 60.66830825805664 31.04090690612793 60.94654846191406 30.25590133666992 61.57867431640625 29.81597328186035 C 61.88525390625 29.60260391235352 62.24455642700195 29.48982238769531 62.61774444580078 29.48982238769531 C 62.95026779174805 29.48982238769531 63.27003479003906 29.57877349853516 63.54896545410156 29.74524688720703 L 63.54896545410156 20.84940338134766 C 63.54838562011719 20.31706237792969 63.11465454101562 19.88321304321289 62.58210372924805 19.88249397277832 C 62.1164665222168 19.88249397277832 61.71897506713867 20.19708251953125 61.61264419555664 20.64751243591309 L 61.38088607788086 21.62085342407227 C 61.34195327758789 21.78446388244629 61.19729614257812 21.89875221252441 61.02910614013672 21.89875221252441 L 53.39445495605469 21.89875221252441 L 53.39445495605469 31.76708221435547 Z M 51.93134307861328 21.1767635345459 L 60.74249267578125 21.1767635345459 L 60.90809631347656 20.48139381408691 C 60.95603179931641 20.27767753601074 61.04209136962891 20.08376121520996 61.15937805175781 19.910888671875 L 53.19826507568359 19.88597297668457 L 53.19412612915039 19.68597221374512 L 53.19412612915039 19.88597297668457 C 52.70514297485352 19.88597297668457 52.26951599121094 20.19656372070312 52.11013412475586 20.65883255004883 L 51.93134307861328 21.1767635345459 Z" stroke="none" fill="#173043"/>
    </g>
    <g id="Path_18" data-name="Path 18" transform="translate(-319.538 -337.638)">
      <path d="M 382.2321166992188 370.0441589355469 C 381.7071228027344 370.0441589355469 381.2799987792969 369.6170349121094 381.2799987792969 369.092041015625 C 381.2799987792969 368.5670471191406 381.7071228027344 368.1399230957031 382.2321166992188 368.1399230957031 C 382.7566223144531 368.1405029296875 383.1836853027344 368.5675659179688 383.1842346191406 369.0919494628906 C 383.1842346191406 369.6170349121094 382.7571105957031 370.0441589355469 382.2321166992188 370.0441589355469 Z M 382.2321166992188 368.6486511230469 C 381.9874572753906 368.6486511230469 381.7884216308594 368.8476867675781 381.7884216308594 369.0923461914062 C 381.7884216308594 369.3370056152344 381.9874572753906 369.5360412597656 382.2321166992188 369.5360412597656 C 382.4767761230469 369.5360412597656 382.6758117675781 369.3370056152344 382.6758117675781 369.0923461914062 C 382.6758117675781 368.8476867675781 382.4767761230469 368.6486511230469 382.2321166992188 368.6486511230469 Z" stroke="none"/>
      <path d="M 382.2321166992188 368.2399291992188 C 381.7615356445312 368.2399291992188 381.3800048828125 368.6214599609375 381.3800048828125 369.092041015625 C 381.3800048828125 369.5626525878906 381.7615356445312 369.9441528320312 382.2321166992188 369.9441528320312 C 382.7027282714844 369.9441528320312 383.084228515625 369.5626525878906 383.084228515625 369.092041015625 C 383.083740234375 368.6216430664062 382.7025146484375 368.2404479980469 382.2321166992188 368.2399291992188 M 382.2321166992188 369.6360473632812 C 381.9318542480469 369.6360473632812 381.6884155273438 369.3926391601562 381.6884155273438 369.0923461914062 C 381.6884155273438 368.7920837402344 381.9318542480469 368.5486450195312 382.2321166992188 368.5486450195312 C 382.5324096679688 368.5486450195312 382.7758178710938 368.7920837402344 382.7758178710938 369.0923461914062 C 382.7758178710938 369.3926391601562 382.5324096679688 369.6360473632812 382.2321166992188 369.6360473632812 M 382.2321166992188 368.0399169921875 L 382.2323303222656 368.0399169921875 C 382.8117370605469 368.0405578613281 383.2836303710938 368.512451171875 383.2842407226562 369.0918273925781 C 383.2842407226562 369.6721801757812 382.812255859375 370.1441650390625 382.2321166992188 370.1441650390625 C 381.6519775390625 370.1441650390625 381.1799926757812 369.6721801757812 381.1799926757812 369.092041015625 C 381.1799926757812 368.5119018554688 381.6519775390625 368.0399169921875 382.2321166992188 368.0399169921875 Z M 382.2321166992188 369.4360656738281 C 382.421630859375 369.4360656738281 382.5758056640625 369.2818603515625 382.5758056640625 369.0923461914062 C 382.5758056640625 368.90283203125 382.421630859375 368.7486267089844 382.2321166992188 368.7486267089844 C 382.0426025390625 368.7486267089844 381.888427734375 368.90283203125 381.888427734375 369.0923461914062 C 381.888427734375 369.2818603515625 382.0426025390625 369.4360656738281 382.2321166992188 369.4360656738281 Z" stroke="none" fill="#173043"/>
    </g>
    <g id="Path_19" data-name="Path 19" transform="translate(-144.574 -107.573)">
      <path d="M 204.8375549316406 135.1943359375 L 200.8440551757812 135.1943359375 C 200.7039642333984 135.1943359375 200.5899963378906 135.0803680419922 200.5899963378906 134.9402923583984 L 200.5899963378906 132.1311492919922 C 200.58984375 132.0498962402344 200.629150390625 131.9728088378906 200.6951293945312 131.9250793457031 L 202.6917572021484 130.4818267822266 C 202.7356262207031 130.4502716064453 202.7871551513672 130.4336700439453 202.8409423828125 130.4336700439453 C 202.8947448730469 130.4336700439453 202.9462585449219 130.4502563476562 202.9899444580078 130.4816589355469 L 204.9864654541016 131.9250640869141 C 205.0522918701172 131.9729766845703 205.0915069580078 132.0498962402344 205.0916137695312 132.1310272216797 L 205.0916137695312 134.9402923583984 C 205.0916137695312 135.0803680419922 204.9776458740234 135.1943359375 204.8375549316406 135.1943359375 Z M 203.8555908203125 134.6862487792969 L 204.5816955566406 134.6862487792969 L 204.5816955566406 132.2607879638672 L 202.8391418457031 131.0010070800781 L 201.0966033935547 132.2607574462891 L 201.0980529785156 134.6862487792969 L 201.8269348144531 134.6862487792969 L 201.8269348144531 133.3475341796875 C 201.8269348144531 132.7882385253906 202.2819519042969 132.3332061767578 202.8412628173828 132.3332061767578 C 203.4005584716797 132.3332061767578 203.8555908203125 132.7882385253906 203.8555908203125 133.3475341796875 L 203.8555908203125 134.6862487792969 Z M 202.3350219726562 134.6862487792969 L 203.3474731445312 134.6862487792969 L 203.3474731445312 133.3475341796875 C 203.3474731445312 133.0684051513672 203.1203918457031 132.84130859375 202.8412628173828 132.84130859375 C 202.5621185302734 132.84130859375 202.3350219726562 133.0684051513672 202.3350219726562 133.3475341796875 L 202.3350219726562 134.6862487792969 Z" stroke="none"/>
      <path d="M 204.8375549316406 135.0943450927734 C 204.9226379394531 135.0943450927734 204.9916076660156 135.0253753662109 204.9916076660156 134.9402923583984 L 204.9916076660156 132.1311492919922 C 204.9915466308594 132.0816802978516 204.9678649902344 132.0352172851562 204.9278717041016 132.006103515625 L 202.9315795898438 130.5628662109375 C 202.8774108886719 130.5239105224609 202.804443359375 130.52392578125 202.7503356933594 130.5628662109375 L 200.7537384033203 132.006103515625 C 200.713623046875 132.0351257324219 200.6899108886719 132.0816497802734 200.6900024414062 132.1311492919922 L 200.6900024414062 134.9402923583984 C 200.6900024414062 135.0253753662109 200.7589721679688 135.0943450927734 200.8440551757812 135.0943450927734 L 204.8375549316406 135.0943450927734 M 202.8412628173828 132.4332122802734 C 202.3362884521484 132.4332122802734 201.9269256591797 132.8425750732422 201.9269256591797 133.3475341796875 L 201.9269256591797 134.7862396240234 L 200.9981079101562 134.7862396240234 L 200.99658203125 132.2096862792969 L 202.8391418457031 130.8776092529297 L 204.6817016601562 132.2096862792969 L 204.6817016601562 134.7862396240234 L 203.7555847167969 134.7862396240234 L 203.7555847167969 133.3475341796875 C 203.7555847167969 132.8425750732422 203.3462219238281 132.4332122802734 202.8412628173828 132.4332122802734 M 202.8412628173828 132.7413177490234 C 203.1760711669922 132.7413177490234 203.4474792480469 133.0127258300781 203.4474792480469 133.3475341796875 L 203.4474792480469 134.7862396240234 L 202.2350311279297 134.7862396240234 L 202.2350311279297 133.3475341796875 C 202.2350311279297 133.0127258300781 202.5064392089844 132.7413177490234 202.8412628173828 132.7413177490234 M 204.8375549316406 135.2943420410156 L 200.8440551757812 135.2943420410156 C 200.6488342285156 135.2943420410156 200.4900054931641 135.1355133056641 200.4900054931641 134.9402923583984 L 200.4900054931641 132.1311492919922 C 200.4897918701172 132.0180358886719 200.5445709228516 131.9105682373047 200.6365203857422 131.8440551757812 L 202.6331787109375 130.4007720947266 C 202.7556304931641 130.312744140625 202.9267883300781 130.3130950927734 203.0483245849609 130.4004669189453 L 205.0450439453125 131.8440246582031 C 205.1368713378906 131.9108581542969 205.1914672851562 132.0179595947266 205.1916046142578 132.1309204101562 L 205.1916046142578 134.9402923583984 C 205.1916046142578 135.1355133056641 205.0327758789062 135.2943420410156 204.8375549316406 135.2943420410156 Z M 203.9555816650391 134.5862426757812 L 204.4817047119141 134.5862426757812 L 204.4817047119141 132.3118896484375 L 202.8391418457031 131.1244049072266 L 201.1966400146484 132.3118438720703 L 201.197998046875 134.5862426757812 L 201.7269287109375 134.5862426757812 L 201.7269287109375 133.3475341796875 C 201.7269287109375 132.7330932617188 202.2268218994141 132.2332153320312 202.8412628173828 132.2332153320312 C 203.4557037353516 132.2332153320312 203.9555816650391 132.7330932617188 203.9555816650391 133.3475341796875 L 203.9555816650391 134.5862426757812 Z M 202.4350280761719 134.5862426757812 L 203.2474822998047 134.5862426757812 L 203.2474822998047 133.3475341796875 C 203.2474822998047 133.1235504150391 203.0652465820312 132.9413146972656 202.8412628173828 132.9413146972656 C 202.6172637939453 132.9413146972656 202.4350280761719 133.1235504150391 202.4350280761719 133.3475341796875 L 202.4350280761719 134.5862426757812 Z" stroke="none" fill="#173043"/>
    </g>
    <g id="Path_20" data-name="Path 20" transform="translate(-94.058 -292.729)">
      <path d="M 156.1626129150391 322.0881042480469 L 148.4166107177734 322.0881042480469 C 148.2696075439453 322.0881042480469 148.1500091552734 321.97412109375 148.1500091552734 321.8340454101562 C 148.1500091552734 321.6939697265625 148.2696075439453 321.5799865722656 148.4166107177734 321.5799865722656 L 156.1626129150391 321.5799865722656 C 156.3096160888672 321.5799865722656 156.4292144775391 321.6939697265625 156.4292144775391 321.8340454101562 C 156.4292144775391 321.97412109375 156.3096160888672 322.0881042480469 156.1626129150391 322.0881042480469 Z" stroke="none"/>
      <path d="M 156.1626129150391 321.9880981445312 C 156.2546234130859 321.9880981445312 156.3292083740234 321.9191284179688 156.3292083740234 321.8340454101562 C 156.3292083740234 321.7489624023438 156.2546234130859 321.6799926757812 156.1626129150391 321.6799926757812 L 148.4166107177734 321.6799926757812 C 148.3246002197266 321.6799926757812 148.25 321.7489624023438 148.25 321.8340454101562 C 148.25 321.9191284179688 148.3246002197266 321.9880981445312 148.4166107177734 321.9880981445312 L 156.1626129150391 321.9880981445312 M 156.1626129150391 322.1881103515625 L 148.4166107177734 322.1881103515625 C 148.2144622802734 322.1881103515625 148.0500030517578 322.0292663574219 148.0500030517578 321.8340454101562 C 148.0500030517578 321.6388244628906 148.2144622802734 321.47998046875 148.4166107177734 321.47998046875 L 156.1626129150391 321.47998046875 C 156.36474609375 321.47998046875 156.5292053222656 321.6388244628906 156.5292053222656 321.8340454101562 C 156.5292053222656 322.0292663574219 156.36474609375 322.1881103515625 156.1626129150391 322.1881103515625 Z" stroke="none" fill="#173043"/>
    </g>
    <g id="Path_21" data-name="Path 21" transform="translate(-93.854 -334.549)">
      <path d="M 151.7327270507812 365.2781066894531 L 148.404052734375 365.2781066894531 C 148.2639770507812 365.2781066894531 148.1499938964844 365.1641235351562 148.1499938964844 365.0240478515625 C 148.1499938964844 364.8839721679688 148.2639770507812 364.7699890136719 148.404052734375 364.7699890136719 L 151.7327270507812 364.7699890136719 C 151.872802734375 364.7699890136719 151.9867858886719 364.8839721679688 151.9867858886719 365.0240478515625 C 151.9867858886719 365.1641235351562 151.872802734375 365.2781066894531 151.7327270507812 365.2781066894531 Z" stroke="none"/>
      <path d="M 148.404052734375 364.8699951171875 C 148.3189697265625 364.8699951171875 148.25 364.93896484375 148.25 365.0240478515625 C 148.25 365.109130859375 148.3189697265625 365.1781005859375 148.404052734375 365.1781005859375 L 151.7327270507812 365.1781005859375 C 151.8178100585938 365.1781005859375 151.8867797851562 365.109130859375 151.8867797851562 365.0240478515625 C 151.8867797851562 364.93896484375 151.8178100585938 364.8699951171875 151.7327270507812 364.8699951171875 L 148.404052734375 364.8699951171875 M 148.404052734375 364.6699829101562 L 151.7327270507812 364.6699829101562 C 151.9279479980469 364.6699829101562 152.0867767333984 364.8288269042969 152.0867767333984 365.0240478515625 C 152.0867767333984 365.2192687988281 151.9279479980469 365.3781127929688 151.7327270507812 365.3781127929688 L 148.404052734375 365.3781127929688 C 148.2088317871094 365.3781127929688 148.0500030517578 365.2192687988281 148.0500030517578 365.0240478515625 C 148.0500030517578 364.8288269042969 148.2088317871094 364.6699829101562 148.404052734375 364.6699829101562 Z" stroke="none" fill="#173043"/>
    </g>
  </g>
</svg>
