<svg xmlns="http://www.w3.org/2000/svg" width="15.334" height="14.567" viewBox="0 0 15.334 14.567">
  <g id="_8675119_ic_fluent_people_audience_regular_icon" data-name="8675119_ic_fluent_people_audience_regular_icon" transform="translate(-2 -3)">
    <path id="Path_10" data-name="Path 10" d="M13.062,10A1.342,1.342,0,0,1,14.4,11.342v2.492h0v.192a.575.575,0,1,1-1.15,0V12.3h0v-.958a.192.192,0,0,0-.192-.192H8.843a.192.192,0,0,0-.192.192v2.492h0v.192a.575.575,0,1,1-1.15,0V12.3h0v-.958A1.342,1.342,0,0,1,8.843,10Z" transform="translate(-1.283 -1.633)" fill="#173043"/>
    <path id="Path_11" data-name="Path 11" d="M19.654,11.342v2.683a.575.575,0,1,0,1.15,0V11.342A1.342,1.342,0,0,0,19.463,10H16.875a2.1,2.1,0,0,1,.474,1.151h2.114A.192.192,0,0,1,19.654,11.342Z" transform="translate(-3.47 -1.633)" fill="#173043"/>
    <path id="Path_12" data-name="Path 12" d="M2,14.025a.575.575,0,1,0,1.15,0V11.342a.192.192,0,0,1,.192-.192H5.46A2.1,2.1,0,0,1,5.934,10H3.342A1.342,1.342,0,0,0,2,11.342Z" transform="translate(0 -1.633)" fill="#173043"/>
    <path id="Path_13" data-name="Path 13" d="M11.3,3A2.3,2.3,0,1,1,9,5.3,2.3,2.3,0,0,1,11.3,3Zm0,1.15A1.15,1.15,0,1,0,12.45,5.3,1.15,1.15,0,0,0,11.3,4.15Z" transform="translate(-1.633 0)" fill="#173043"/>
    <path id="Path_14" data-name="Path 14" d="M17.917,4A1.917,1.917,0,1,1,16,5.917,1.917,1.917,0,0,1,17.917,4Zm0,1.15a.767.767,0,1,0,.767.767A.767.767,0,0,0,17.917,5.15Z" transform="translate(-3.266 -0.233)" fill="#173043"/>
    <path id="Path_15" data-name="Path 15" d="M4.917,4A1.917,1.917,0,1,1,3,5.917,1.917,1.917,0,0,1,4.917,4Zm0,1.15a.767.767,0,1,0,.767.767A.767.767,0,0,0,4.917,5.15Z" transform="translate(-0.233 -0.233)" fill="#173043"/>
    <path id="Path_16" data-name="Path 16" d="M2.575,17A.575.575,0,0,0,2,17.575v.383a2.875,2.875,0,0,0,2.875,2.875h9.584a2.875,2.875,0,0,0,2.875-2.875v-.383A.575.575,0,0,0,16.759,17Zm2.3,2.683A1.725,1.725,0,0,1,3.161,18.15H16.173a1.725,1.725,0,0,1-1.715,1.533Z" transform="translate(0 -3.266)" fill="#173043"/>
  </g>
</svg>
