<svg xmlns="http://www.w3.org/2000/svg" width="21.02" height="20.093" viewBox="0 0 21.02 20.093">
  <g id="_216411_star_icon" data-name="216411_star_icon" transform="translate(-3.138 -3.534)">
    <g id="Group_43" data-name="Group 43" transform="translate(3.649 4.034)">
      <path id="Path_1" data-name="Path 1" d="M10.49,10.17l-6.308.7a.6.6,0,0,0-.5.411.593.593,0,0,0,.168.624c1.875,1.711,4.693,4.274,4.693,4.274s-.774,3.728-1.286,6.215A.6.6,0,0,0,7.487,23a.594.594,0,0,0,.644.034c2.208-1.255,5.516-3.142,5.516-3.142l5.513,3.143a.6.6,0,0,0,.881-.639c-.513-2.488-1.283-6.216-1.283-6.216s2.818-2.563,4.693-4.27a.6.6,0,0,0,.168-.627.6.6,0,0,0-.5-.408c-2.524-.283-6.31-.7-6.31-.7L14.193,4.386a.606.606,0,0,0-.546-.352.6.6,0,0,0-.542.352C12.058,6.7,10.49,10.17,10.49,10.17Z" transform="translate(-3.649 -4.034)" fill="#1189e1" stroke="#1189e1" stroke-width="1"/>
    </g>
  </g>
</svg>
