<svg id="_6351933_filter_filters_funnel_seo_sort_icon" data-name="6351933_filter_filters_funnel_seo_sort_icon" xmlns="http://www.w3.org/2000/svg" width="16" height="8.667" viewBox="0 0 16 8.667">
  <path id="Path_4312" data-name="Path 4312" d="M2,6.848A.8.8,0,0,1,2.727,6H17.273A.8.8,0,0,1,18,6.848a.8.8,0,0,1-.727.848H2.727A.8.8,0,0,1,2,6.848Z" transform="translate(-2 -6)" fill="#002948"/>
  <path id="Path_4313" data-name="Path 4313" d="M6.909,14.286c0-.468.281-.848.628-.848h6.906c.347,0,.628.38.628.848s-.281.848-.628.848H7.537C7.19,15.134,6.909,14.754,6.909,14.286Z" transform="translate(-2.99 -9.952)" fill="#002948"/>
  <path id="Path_4314" data-name="Path 4314" d="M12.144,20.875a.849.849,0,1,0,0,1.7h2.613a.849.849,0,1,0,0-1.7Z" transform="translate(-5.45 -13.905)" fill="#002948"/>
</svg>
