<svg xmlns="http://www.w3.org/2000/svg" width="16.668" height="16.672" viewBox="0 0 16.668 16.672">
  <g id="Outline" transform="translate(-2 -1.984)">
    <g id="Outline-2" data-name="Outline" transform="translate(2 1.984)">
      <circle id="Ellipse_8" data-name="Ellipse 8" cx="0.278" cy="0.278" r="0.278" transform="translate(8.056 15.006)" fill="#173043"/>
      <path id="Path_6" data-name="Path 6" d="M13.287,14.039a6.389,6.389,0,1,0-5.906,0C3.808,14.306,2,15.064,2,16.3c0,1.945,4.531,2.361,8.334,2.361s8.334-.408,8.334-2.361C18.668,15.064,16.859,14.306,13.287,14.039ZM4.5,8.378a5.834,5.834,0,1,1,8.256,5.306.239.239,0,0,0-.081.058l-1.389,1.389h0l-.77.775a.278.278,0,0,1-.353,0L7.992,13.731a.239.239,0,0,0-.081-.058A5.85,5.85,0,0,1,4.5,8.378ZM10.334,18.1c-4.8,0-7.778-.692-7.778-1.806,0-.911,1.992-1.542,5.464-1.742l.539.556C6.814,15.192,4.5,15.478,4.5,16.3c0,.925,2.95,1.167,4.723,1.231h0a.278.278,0,0,0,0-.556c-2.659-.094-3.889-.478-4.142-.675.244-.194,1.442-.556,4-.669l.694.7a.811.811,0,0,0,.542.2.856.856,0,0,0,.556-.214l.683-.686c2.581.1,3.775.475,4.023.669-.247.2-1.481.581-4.142.675a.278.278,0,0,0,0,.556h0c1.758-.064,4.723-.306,4.723-1.231,0-.817-2.314-1.111-4.059-1.2l.539-.556c3.478.228,5.47.845,5.47,1.756C18.112,17.409,15.132,18.1,10.334,18.1Z" transform="translate(-2 -1.984)" fill="#173043"/>
      <path id="Path_7" data-name="Path 7" d="M23.556,11.278a5.278,5.278,0,1,0-5.278,5.278A5.278,5.278,0,0,0,23.556,11.278Zm-10,0A4.723,4.723,0,1,1,18.278,16a4.723,4.723,0,0,1-4.723-4.723Z" transform="translate(-9.944 -4.884)" fill="#173043"/>
      <path id="Path_8" data-name="Path 8" d="M26.445,18.79V15.162a.569.569,0,0,0-.556-.569H24.881l-.736-.833a.556.556,0,0,0-.422-.189H22.231a.556.556,0,0,0-.422.189l-.745.833h-.995a.569.569,0,0,0-.569.569V18.79a.569.569,0,0,0,.569.556h5.806A.569.569,0,0,0,26.445,18.79Zm-6.389,0,.014-3.642h.995a.556.556,0,0,0,.422-.189l.745-.833h1.492l.736.833a.556.556,0,0,0,.422.189l1.008.014V18.8Z" transform="translate(-14.639 -10.351)" fill="#173043"/>
      <path id="Path_9" data-name="Path 9" d="M28.635,20.39a1.295,1.295,0,1,0,1.295,1.295A1.295,1.295,0,0,0,28.635,20.39Zm0,2.031a.739.739,0,1,1,.739-.736A.739.739,0,0,1,28.635,22.421Z" transform="translate(-20.301 -15.277)" fill="#173043"/>
    </g>
  </g>
</svg>
