<svg xmlns="http://www.w3.org/2000/svg" width="16.367" height="16.635" viewBox="0 0 16.367 16.635">
  <g id="_7738935_history_time_clock_schedule_event_icon" data-name="7738935_history_time_clock_schedule_event_icon" transform="translate(-1.5 -1)">
    <path id="Path_4319" data-name="Path 4319" d="M13.842,14.684a.537.537,0,0,0-.537.537v1.342H2.573V2.073H13.306v.268a.537.537,0,1,0,1.073,0v-.8A.537.537,0,0,0,13.842,1H2.037a.537.537,0,0,0-.537.537V17.1a.537.537,0,0,0,.537.537H13.842a.537.537,0,0,0,.537-.537V15.22A.537.537,0,0,0,13.842,14.684Z" transform="translate(0)" fill="#1189e1"/>
    <path id="Path_4320" data-name="Path 4320" d="M29.6,11a5.1,5.1,0,1,0,5.1,5.1A5.1,5.1,0,0,0,29.6,11Zm0,9.123A4.025,4.025,0,1,1,33.623,16.1,4.029,4.029,0,0,1,29.6,20.123Z" transform="translate(-16.829 -7.317)" fill="#1189e1"/>
    <path id="Path_4321" data-name="Path 4321" d="M42.747,24.048l.809-1.214a.537.537,0,1,0-.893-.6l-1.073,1.61a.537.537,0,0,0,.1.705l1.878,1.61a.537.537,0,0,0,.7-.815Z" transform="translate(-29.267 -15.365)" fill="#1189e1"/>
    <path id="Path_4322" data-name="Path 4322" d="M10.037,19.073h1.878a.537.537,0,1,0,0-1.073H10.037a.537.537,0,0,0,0,1.073Z" transform="translate(-5.854 -12.439)" fill="#1189e1"/>
    <path id="Path_4323" data-name="Path 4323" d="M10.037,27.073h.8a.537.537,0,1,0,0-1.073h-.8a.537.537,0,0,0,0,1.073Z" transform="translate(-5.854 -18.292)" fill="#1189e1"/>
    <path id="Path_4324" data-name="Path 4324" d="M10.037,35.073h1.342a.537.537,0,1,0,0-1.073H10.037a.537.537,0,1,0,0,1.073Z" transform="translate(-5.854 -24.146)" fill="#1189e1"/>
    <path id="Path_4325" data-name="Path 4325" d="M10.037,43.073h3.22a.537.537,0,0,0,0-1.073h-3.22a.537.537,0,0,0,0,1.073Z" transform="translate(-5.854 -29.999)" fill="#1189e1"/>
  </g>
</svg>
