<svg xmlns="http://www.w3.org/2000/svg" width="16.334" height="20.871" viewBox="0 0 16.334 20.871">
  <path id="_290144_building_office_finance_buildings_icon" data-name="290144_building_office_finance buildings_icon" d="M6,21.871V9.621A1.815,1.815,0,0,1,7.815,7.806h0V5.991a.908.908,0,0,1,.907-.907H9.63V1.454a.454.454,0,0,1,.907,0v3.63h.907a.908.908,0,0,1,.907.907V7.806h0a1.815,1.815,0,0,1,1.815,1.815v3.63h3.176V10.528h1.815V9.167H21.88v1.361h.454V21.871ZM11.445,6.445a.454.454,0,0,0-.454-.454H9.176a.454.454,0,0,0-.454.454V7.806h2.722ZM13.26,9.621a.908.908,0,0,0-.907-.907H7.815a.908.908,0,0,0-.907.907V20.964H13.26Zm4.083,4.537H14.167v6.806h3.176Zm4.083-2.722H18.25v9.528h3.176ZM19.612,12.8h.454a.453.453,0,0,1,.454.454V13.7a.453.453,0,0,1-.454.454h-.454a.453.453,0,0,1-.454-.454V13.25A.453.453,0,0,1,19.612,12.8Zm0,2.722h.454a.453.453,0,0,1,.454.454v.454a.453.453,0,0,1-.454.454h-.454a.453.453,0,0,1-.454-.454v-.454A.453.453,0,0,1,19.612,15.519Zm0,2.722h.454a.453.453,0,0,1,.454.454v.454a.453.453,0,0,1-.454.454h-.454a.453.453,0,0,1-.454-.454V18.7A.453.453,0,0,1,19.612,18.241Zm-4.083-2.722h.454a.453.453,0,0,1,.454.454v.454a.453.453,0,0,1-.454.454h-.454a.453.453,0,0,1-.454-.454v-.454A.453.453,0,0,1,15.528,15.519Zm0,2.722h.454a.453.453,0,0,1,.454.454v.454a.453.453,0,0,1-.454.454h-.454a.453.453,0,0,1-.454-.454V18.7A.453.453,0,0,1,15.528,18.241ZM11.445,19.6h-.454a.453.453,0,0,1-.454-.454V18.7a.454.454,0,0,1,.454-.454h.454a.454.454,0,0,1,.454.454v.454A.453.453,0,0,1,11.445,19.6Zm0-2.722h-.454a.453.453,0,0,1-.454-.454v-.454a.454.454,0,0,1,.454-.454h.454a.454.454,0,0,1,.454.454v.454A.453.453,0,0,1,11.445,16.88Zm0-2.722h-.454a.453.453,0,0,1-.454-.454V13.25a.454.454,0,0,1,.454-.454h.454a.454.454,0,0,1,.454.454V13.7A.453.453,0,0,1,11.445,14.158Zm0-2.722h-.454a.453.453,0,0,1-.454-.454v-.454a.454.454,0,0,1,.454-.454h.454a.454.454,0,0,1,.454.454v.454A.453.453,0,0,1,11.445,11.436ZM9.176,19.6H8.722a.453.453,0,0,1-.454-.454V18.7a.453.453,0,0,1,.454-.454h.454a.453.453,0,0,1,.454.454v.454A.453.453,0,0,1,9.176,19.6Zm0-2.722H8.722a.453.453,0,0,1-.454-.454v-.454a.453.453,0,0,1,.454-.454h.454a.453.453,0,0,1,.454.454v.454A.453.453,0,0,1,9.176,16.88Zm0-2.722H8.722a.453.453,0,0,1-.454-.454V13.25a.454.454,0,0,1,.454-.454h.454a.454.454,0,0,1,.454.454V13.7A.453.453,0,0,1,9.176,14.158Zm0-2.722H8.722a.453.453,0,0,1-.454-.454v-.454a.454.454,0,0,1,.454-.454h.454a.454.454,0,0,1,.454.454v.454A.453.453,0,0,1,9.176,11.436Z" transform="translate(-6 -1)" fill="#173043" fill-rule="evenodd"/>
</svg>
